<svg width="60" height="42" viewBox="0 0 60 42" fill="none" xmlns="http://www.w3.org/2000/svg">
<g clip-path="url(#clip0_10_11)">
<path d="M14.05 33.42C11.8333 33.42 10.095 32.8017 8.835 31.565C7.575 30.3283 6.945 28.6133 6.945 26.42H9.92C9.92 27.6567 10.2233 28.695 10.83 29.535C11.4367 30.375 12.4983 30.795 14.015 30.795C15.485 30.795 16.5 30.3867 17.06 29.57C17.6433 28.7533 17.935 27.7383 17.935 26.525V8.5H20.875V26.525C20.875 28.695 20.2683 30.3867 19.055 31.6C17.865 32.8133 16.1967 33.42 14.05 33.42ZM26.0558 33V8.5H29.4858L38.3058 25.58L47.0558 8.5H50.5208V33H47.5808V13.75L39.3908 29.5H37.1858L28.9958 13.785V33H26.0558Z" fill="#64FFDA"/>
</g>
<rect x="1" y="1" width="58" height="40" stroke="#64FFDA" stroke-width="2"/>
<defs>
<clipPath id="clip0_10_11">
<rect width="60" height="42" fill="white"/>
</clipPath>
</defs>
</svg>
